<?xml version="1.0" encoding="iso-8859-1"?>
<!-- Generator: Adobe Illustrator 19.0.0, SVG Export Plug-In . SVG Version: 6.00 Build 0)  -->
<svg xmlns="http://www.w3.org/2000/svg" xmlns:xlink="http://www.w3.org/1999/xlink" version="1.1" id="Capa_1" x="0px" y="0px" viewBox="0 0 470 470" style="enable-background:new 0 0 470 470;" xml:space="preserve" width="512" height="512">
<g>
	<rect x="127.5" y="7.5" style="fill:#FEC8BB;" width="30" height="365"/>
	<rect x="67.5" y="7.5" style="fill:#FEC8BB;" width="30" height="365"/>
	<path style="fill:#FEFDCA;" d="M412.845,249.332c9.608-7.553,13.985-20.563,9.989-32.863s-15.185-20.252-27.398-20.715   c6.803-10.152,6.946-23.878-0.655-34.341c-7.602-10.463-20.701-14.568-32.458-11.235c3.333-11.758-0.772-24.856-11.235-32.458   c-9.889-7.185-22.689-7.443-32.636-1.706v189.655h94.393c11.471-4.214,19.655-15.235,19.655-28.168   S424.316,253.546,412.845,249.332z"/>
	<path style="fill:#FFFFFF;" d="M402.5,277.5c0-12.933-8.184-23.954-19.655-28.168c9.608-7.553,13.985-20.563,9.989-32.863   s-15.185-20.252-27.398-20.715c6.803-10.152,6.946-23.878-0.655-34.341c-7.602-10.463-20.701-14.568-32.458-11.235   c3.333-11.758-0.772-24.856-11.235-32.458c-0.863-0.627-1.745-1.184-2.636-1.706c-0.577,0.333-1.149,0.678-1.706,1.051   c-0.463-12.212-8.416-23.401-20.715-27.398c-12.3-3.997-25.31,0.381-32.863,9.989C258.954,88.184,247.933,80,235,80   s-23.954,8.184-28.168,19.655c-7.553-9.608-20.563-13.985-32.863-9.989c-12.3,3.996-20.252,15.185-20.715,27.398   c-10.152-6.803-23.878-6.946-34.341,0.655s-14.569,20.701-11.235,32.458c-11.758-3.333-24.856,0.772-32.458,11.235   c-7.602,10.463-7.459,24.189-0.655,34.341c-12.212,0.463-23.401,8.416-27.398,20.715s0.381,25.31,9.989,32.863   C45.684,253.546,37.5,264.567,37.5,277.5s8.184,23.954,19.655,28.168h325.69C394.316,301.454,402.5,290.433,402.5,277.5z"/>
	<path style="fill:#B1786B;" d="M307.5,402.5l-15,60h30c8.284,0,15-6.716,15-15s0-45,0-45H307.5z"/>
	<path style="fill:#CB9385;" d="M307.5,447.5c0-8.284,0-45,0-45h-175c0,0,0,36.716,0,45s6.716,15,15,15h145   C300.784,462.5,307.5,455.784,307.5,447.5z"/>
	<path style="fill:#CB9385;" d="M432.5,277.5l-155,155h30c85.604,0,155-69.396,155-155H432.5z"/>
	<path style="fill:#E4ADA0;" d="M432.5,277.5H7.5c0,85.604,69.396,155,155,155h115C363.104,432.5,432.5,363.104,432.5,277.5z"/>
	<circle cx="335" cy="208.168" r="7.5"/>
	<circle cx="365" cy="238.168" r="7.5"/>
	<circle cx="165" cy="178.168" r="7.5"/>
	<path d="M470,277.5c0-4.143-3.357-7.5-7.5-7.5h-23.28c-1.86-9.031-6.997-17.089-14.333-22.575   c6.708-9.507,8.786-21.864,5.079-33.274c-3.708-11.409-12.652-20.185-23.666-23.933c3.442-11.115,1.6-23.509-5.452-33.215   c-7.053-9.705-18.27-15.287-29.903-15.448c-0.161-11.633-5.744-22.852-15.449-29.903c-9.706-7.051-22.099-8.895-33.214-5.451   c-3.748-11.015-12.524-19.959-23.934-23.667c-11.408-3.707-23.767-1.63-33.273,5.079C258.106,78.295,246.996,72.5,235,72.5   s-23.106,5.795-30.075,15.112c-9.507-6.709-21.864-8.786-33.274-5.079c-2.337,0.759-4.555,1.749-6.65,2.921V7.5   c0-4.143-3.357-7.5-7.5-7.5h-30c-4.143,0-7.5,3.357-7.5,7.5v75.172c0,4.143,3.357,7.5,7.5,7.5s7.5-3.357,7.5-7.5V15h15v85.909   c-0.888,1.699-1.66,3.463-2.282,5.29c-11.115-3.44-23.509-1.598-33.215,5.452c-3.846,2.795-7.033,6.251-9.503,10.121V7.5   c0-4.143-3.357-7.5-7.5-7.5h-30C63.357,0,60,3.357,60,7.5v120.813c0,4.143,3.357,7.5,7.5,7.5s7.5-3.357,7.5-7.5V15h15v127.802   c-8.208,2.159-15.659,7.059-20.849,14.202c-7.052,9.706-8.895,22.099-5.452,33.214c-11.014,3.748-19.958,12.524-23.666,23.934   c-3.707,11.409-1.629,23.767,5.079,33.273C37.777,252.911,32.64,260.969,30.78,270H7.5c-4.143,0-7.5,3.357-7.5,7.5   c0,76.699,53.417,141.15,125,158.125V447.5c0,12.406,10.094,22.5,22.5,22.5h175c12.406,0,22.5-10.094,22.5-22.5v-11.875   C416.583,418.65,470,354.199,470,277.5z M59.742,256.372c2.551-0.938,4.396-3.183,4.82-5.867c0.426-2.685-0.635-5.389-2.772-7.069   c-7.385-5.805-10.395-15.711-7.491-24.648c2.904-8.938,11.162-15.183,20.549-15.539c2.716-0.103,5.164-1.667,6.398-4.089   s1.062-5.322-0.452-7.58c-5.229-7.804-5.031-18.155,0.492-25.759c5.524-7.604,15.311-10.991,24.345-8.428   c2.617,0.743,5.427,0.009,7.35-1.912c1.922-1.923,2.653-4.734,1.912-7.35c-2.563-9.036,0.825-18.82,8.428-24.345   c7.604-5.524,17.953-5.721,25.759-0.492c2.257,1.514,5.157,1.688,7.58,0.452c2.422-1.234,3.986-3.683,4.089-6.398   c0.356-9.387,6.601-17.645,15.538-20.549c8.938-2.903,18.845,0.106,24.649,7.491c1.68,2.138,4.391,3.202,7.069,2.772   c2.685-0.425,4.93-2.27,5.867-4.82C217.111,93.424,225.603,87.5,235,87.5s17.889,5.924,21.128,14.742   c0.938,2.551,3.183,4.396,5.867,4.82c2.682,0.428,5.39-0.636,7.069-2.772c5.804-7.385,15.711-10.396,24.648-7.491   c8.938,2.904,15.183,11.162,15.539,20.549c0.103,2.716,1.667,5.164,4.089,6.398s5.324,1.062,7.58-0.452   c7.805-5.229,18.154-5.03,25.759,0.492c7.603,5.524,10.99,15.309,8.428,24.345c-0.741,2.615-0.01,5.427,1.912,7.35   c1.922,1.921,4.731,2.654,7.35,1.912c9.037-2.563,18.82,0.825,24.345,8.428c5.523,7.604,5.722,17.955,0.492,25.759   c-1.514,2.258-1.687,5.158-0.452,7.58s3.683,3.986,6.398,4.089c9.387,0.356,17.645,6.601,20.549,15.538   c2.903,8.938-0.106,18.845-7.491,24.649c-2.138,1.681-3.198,4.385-2.772,7.069c0.425,2.685,2.27,4.93,4.82,5.867   c6.376,2.342,11.225,7.437,13.429,13.628H46.313C48.517,263.809,53.366,258.714,59.742,256.372z M307.5,425h-115   c-4.143,0-7.5,3.357-7.5,7.5s3.357,7.5,7.5,7.5h115c7.634,0,15.143-0.542,22.5-1.565v9.065c0,4.136-3.364,7.5-7.5,7.5h-175   c-4.136,0-7.5-3.364-7.5-7.5v-9.065c7.357,1.024,14.866,1.565,22.5,1.565c4.143,0,7.5-3.357,7.5-7.5s-3.357-7.5-7.5-7.5   c-78.815,0-143.391-62.142-147.312-140h439.623C450.891,362.858,386.315,425,307.5,425z"/>
</g>















</svg>
